<svg height="512pt" viewBox="0 0 512 512.10355" width="512pt" xmlns="http://www.w3.org/2000/svg"><path d="m60.6875 504.070312c5.277344 5.035157 12.253906 7.902344 19.546875 8.035157 1.445313 0 2.886719-.121094 4.308594-.359375 8.894531-1.671875 16.511719-7.378906 20.609375-15.445313 33.851562-58.996093 80.023437-109.996093 135.367187-149.535156 7.679688-4.882813 12.648438-13.058594 13.449219-22.121094.316406-5.792969-1.261719-11.53125-4.496094-16.351562l69.554688-76.816407c13.59375-14.992187 36.132812-24.886718 46.410156-20.394531 4.042969 1.78125 5.785156 6.792969 5.398438 14.632813-3.988282 6.996094-2.570313 15.824218 3.40625 21.21875l40.578124 35.824218c3.121094 2.820313 7.183594 4.378907 11.390626 4.371094.292968 0 .582031-.007812.875-.019531 4.519531-.214844 8.765624-2.230469 11.792968-5.59375l68.730469-75.902344c3.054687-3.367187 4.636719-7.816406 4.398437-12.355469-.238281-4.539062-2.28125-8.796874-5.671874-11.824218l-40.535157-35.78125c-6-5.410156-14.972656-5.882813-21.511719-1.128906-7.636718 1.542968-15.394531-2.066407-19.132812-8.90625-2.554688-5.898438-3.652344-12.324219-3.207031-18.738282-.058594-2.957031-.117188-5.957031-.359375-9.011718-2.023438-13.683594-9.386719-26.007813-20.472656-34.277344l-43.949219-39.796875c-5.601563-5.070313-11.632813-9.644531-18.027344-13.671875-30.566406-18.480469-67.058594-24.53125-101.953125-16.90625-18.441406 3.59375-36.246094 9.894531-52.839844 18.699218-13.398437 7.148438-21.09375 14.734376-23.5 23.1875-1.535156 5.347657-.773437 11.09375 2.101563 15.855469 3.898437 5.945313 10.148437 9.949219 17.183593 11 7.4375 1.269531 15.007813 1.585938 22.527344.9375 3.542969-.15625 7.058594-.3125 10.566406-.21875 13.550782.105469 27.035157 1.863281 40.15625 5.238281 8.269532 2.351563 28.25 9.417969 35.269532 24.175782 6.332031 13.3125-1.109375 29.011718-4.601563 35.136718-10.054687 16.074219-21.828125 31.011719-35.105469 44.546876l-62.71875 69.238281c-5.113281-2.746094-10.980468-3.75-16.714843-2.855469-8.894531 1.671875-16.507813 7.378906-20.609375 15.445312-8.34375 14.484376-17.4375 28.527344-27.238282 42.066407l-.085937.0625c-.085937.097656-.105469.222656-.183594.324219-29.941406 41.277343-66.359375 77.4375-107.851562 107.078124-7.679688 4.878907-12.65625 13.058594-13.4570315 22.125-.4296875 8.804688 3.2656245 17.304688 10.0000005 22.996094zm434.273438-309.914062-68.726563 75.917969-.007813-.007813-.074218-.070312-40.535156-35.78125 68.808593-75.835938zm-233.40625-.890625c14.148437-14.441406 26.664062-30.402344 37.3125-47.585937 9.953124-15.101563 11.894531-34.117188 5.195312-50.917969-9.652344-20.292969-32.96875-29.554688-46-33.265625-14.480469-3.769532-29.371094-5.746094-44.335938-5.878906-3.941406-.148438-7.875.042968-11.839843.230468-6.101563.546875-12.242188.34375-18.292969-.597656-2.226562-.238281-4.304688-1.242188-5.882812-2.835938-.554688-.753906-.722657-1.722656-.457032-2.621093.375-1.316407 2.574219-6.125 15.113282-12.820313 15.113281-8.011718 31.328124-13.742187 48.117187-17.011718 30.621094-6.769532 62.671875-1.546876 89.558594 14.59375 5.558593 3.503906 10.800781 7.484374 15.675781 11.890624l43.945312 39.796876c7.738282 5.453124 13.078126 13.675781 14.910157 22.964843.214843 2.714844.253906 5.367188.308593 7.980469-.472656 9.089844 1.308594 18.15625 5.183594 26.394531 4.09375 7.898438 11.179688 13.832031 19.675782 16.476563l-8.222657 9.078125-36.113281 39.882812c-2.421875-6.0625-7.128906-10.929687-13.105469-13.558593-19.273437-8.460938-49.234375 6.144531-65.921875 24.558593l-68.734375 75.90625-37.949219-34.363281zm-238.203126 233.832031c40.363282-28.886718 76.097657-63.738281 105.992188-103.363281l22.96875 19.882813c3.574219 2.957031 8.851562 2.515624 11.886719-.992188 3.035156-3.507812 2.714843-8.796875-.722657-11.910156l-24.039062-20.808594c2.589844-3.6875 5.160156-7.390625 7.65625-11.15625l22.285156 19.269531c2.304688 1.996094 5.5 2.609375 8.378906 1.609375 2.878907-1 5.007813-3.460937 5.582032-6.453125.578125-2.996093-.488282-6.070312-2.796875-8.0625l-24.222657-20.949219c2.492188-4.054687 5.0625-8.042968 7.449219-12.1875 1.628907-3.511718 4.777344-6.089843 8.546875-6.984374 3.570313-.402344 7.121094.886718 9.597656 3.492187l50.605469 45.824219c2.824219 2.210937 4.460938 5.613281 4.425781 9.203125-.539062 3.890625-2.835937 7.3125-6.230468 9.289062-57.421875 41.007813-105.320313 93.914063-140.429688 155.121094-1.625 3.515625-4.777344 6.09375-8.550781 6.988281-3.570313.40625-7.121094-.886718-9.597656-3.488281l-50.605469-45.824219c-2.824219-2.214844-4.460938-5.617187-4.421875-9.207031.542969-3.890625 2.84375-7.316406 6.242187-9.292969zm0 0"/></svg>