<svg height="496pt" viewBox="0 0 496.00989 496" width="496pt" xmlns="http://www.w3.org/2000/svg"><path d="m360.003906 192.007812c0-104.289062-102.664062-186.808593-107.03125-190.273437-2.910156-2.304687-7.023437-2.304687-9.9375 0-4.367187 3.464844-107.03125 85.984375-107.03125 190.273437 0 95.6875 86.402344 172.992188 104 187.773438v84.226562c0 4.417969 3.582032 8 8 8 4.417969 0 8-3.582031 8-8v-84.226562c17.601563-14.78125 104-92.085938 104-187.773438zm-104 166.238282v-90.535156l45.121094-37.550782c3.398438-2.828125 3.859375-7.875 1.03125-11.273437-2.828125-3.398438-7.875-3.859375-11.269531-1.03125l-34.882813 29.039062v-27.199219l45.121094-37.554687c3.398438-2.824219 3.859375-7.871094 1.03125-11.269531-2.828125-3.398438-7.875-3.859375-11.269531-1.03125l-34.882813 29.054687v-35.199219l45.121094-37.554687c3.398438-2.824219 3.859375-7.871094 1.03125-11.269531-2.828125-3.398438-7.875-3.859375-11.269531-1.03125l-34.882813 29.054687v-62.886719c0-4.417968-3.582031-8-8-8-4.417968 0-8 3.582032-8 8v62.886719l-34.878906-29.039062c-3.398438-2.828125-8.445312-2.367188-11.273438 1.03125-2.828124 3.398437-2.363281 8.445312 1.035157 11.273437l45.117187 37.550782v35.199218l-34.878906-29.039062c-3.398438-2.828125-8.445312-2.367188-11.273438 1.03125-2.828124 3.398437-2.363281 8.445312 1.035157 11.273437l45.117187 37.535157v27.199218l-34.878906-29.039062c-3.398438-2.828125-8.445312-2.367188-11.273438 1.03125-2.828124 3.398437-2.363281 8.445312 1.035157 11.273437l45.117187 37.535157v90.535156c-27.199218-25.519532-88-90.925782-88-166.238282 0-83.953124 75.671875-155.753906 96-173.519531 20.328125 17.765625 96 89.566407 96 173.519531 0 75.3125-60.800781 140.71875-88 166.238282zm0 0"/><path d="m192.003906 424.007812h-8v-58.746093c.027344-10.613281-4.191406-20.796875-11.71875-28.277344l-67.34375-67.378906c-9.363281-9.324219-24.507812-9.324219-33.871094 0l-7.066406 7.089843v-84.6875c-.007812-8.890624-3.710937-17.375-10.222656-23.425781-6.507812-6.054687-15.238281-9.128906-24.105469-8.496093-17.050781 1.660156-29.96875 16.140624-29.67187475 33.273437v114.277344c-.00390625 9.953125 3.70312475 19.546875 10.40234375 26.90625l69.597656 76.558593v12.90625h-8c-4.417968 0-8 3.582032-8 8v56c0 4.417969 3.582032 8 8 8h120c4.417969 0 8-3.582031 8-8v-56c0-4.417968-3.582031-8-8-8zm-169.757812-100.234374c-4.019532-4.410157-6.246094-10.167969-6.242188-16.136719v-114.277344c-.214844-8.710937 6.175782-16.183594 14.816406-17.3125 4.640626-.332031 9.199219 1.367187 12.488282 4.65625 3.015625 2.988281 4.707031 7.058594 4.695312 11.304687v97.367188c-.019531 6.371094 2.511719 12.484375 7.03125 16.976562l43.3125 43.3125c3.140625 3.03125 8.128906 2.988282 11.214844-.097656 3.085938-3.085937 3.128906-8.078125.097656-11.214844l-36.71875-36.722656c-1.496094-1.488281-2.335937-3.511718-2.335937-5.621094 0-2.113281.839843-4.136718 2.335937-5.625l9.441406-9.433593c3.113282-3.078125 8.128907-3.078125 11.246094 0l67.34375 67.351562c4.488282 4.507813 7.015625 10.601563 7.03125 16.960938v58.746093h-72v-19.097656zm161.757812 156.234374h-104v-40h104zm0 0"/><path d="m466.332031 160.085938c-8.863281-.632813-17.597656 2.441406-24.105469 8.496093-6.507812 6.050781-10.210937 14.535157-10.222656 23.425781v84.6875l-7.0625-7.066406c-9.363281-9.324218-24.507812-9.324218-33.871094 0l-67.34375 67.355469c-7.527343 7.480469-11.746093 17.664063-11.722656 28.277344v58.746093h-8c-4.417968 0-8 3.582032-8 8v56c0 4.417969 3.582032 8 8 8h120c4.417969 0 8-3.582031 8-8v-56c0-4.417968-3.582031-8-8-8h-8v-12.90625l69.601563-76.558593c6.699219-7.359375 10.40625-16.953125 10.398437-26.90625v-114.277344c.296875-17.132813-12.617187-31.613281-29.671875-33.273437zm-50.328125 319.921874h-104v-40h104zm64-172.371093c.007813 5.96875-2.21875 11.726562-6.238281 16.136719l-73.761719 81.136718v19.097656h-72v-58.746093c.015625-6.359375 2.542969-12.460938 7.03125-16.96875l67.371094-67.34375c3.113281-3.078125 8.128906-3.078125 11.246094 0l9.441406 9.441406c3.082031 3.097656 3.082031 8.101563 0 11.199219l-36.738281 36.738281c-2.078125 2.007813-2.914063 4.980469-2.179688 7.777344.730469 2.796875 2.917969 4.984375 5.714844 5.714843 2.796875.730469 5.769531-.101562 7.777344-2.183593l43.3125-43.308594c4.507812-4.492187 7.035156-10.59375 7.023437-16.953125v-97.367188c-.007812-4.246093 1.683594-8.316406 4.695313-11.304687 3.292969-3.289063 7.847656-4.984375 12.488281-4.65625 8.640625 1.128906 15.035156 8.601563 14.816406 17.3125zm0 0"/><path d="m242.324219 482.328125c-1.464844 1.53125-2.292969 3.558594-2.320313 5.679687.015625.535157.066406 1.070313.160156 1.597657.089844.503906.25.988281.480469 1.441406.175781.507813.417969.992187.71875 1.441406.296875.417969.617188.816407.960938 1.199219 3.15625 3.09375 8.207031 3.09375 11.359375 0l.960937-1.199219c.300781-.449219.542969-.933593.71875-1.441406.234375-.453125.394531-.9375.472657-1.441406.101562-.527344.15625-1.0625.167968-1.597657.019532-3.25-1.929687-6.191406-4.929687-7.4375-3.003907-1.246093-6.460938-.550781-8.75 1.757813zm0 0"/><path d="m96.003906 464.007812h32c4.417969 0 8-3.582031 8-8 0-4.417968-3.582031-8-8-8h-32c-4.417968 0-8 3.582032-8 8 0 4.417969 3.582032 8 8 8zm0 0"/><path d="m148.964844 463.367188c.960937.410156 1.996094.625 3.039062.640624 3.25.015626 6.191406-1.933593 7.4375-4.933593s.550782-6.460938-1.757812-8.746094c-2.300782-2.273437-5.738282-2.933594-8.71875-1.683594-.980469.386719-1.875.957031-2.640625 1.683594-1.464844 1.53125-2.292969 3.558594-2.320313 5.679687-.074218 3.253907 1.914063 6.207032 4.960938 7.359376zm0 0"/><path d="m327.835938 206.40625c-.078126-.5-.238282-.988281-.472657-1.441406-.175781-.507813-.417969-.992188-.71875-1.4375l-.960937-1.199219c-3.207032-2.960937-8.152344-2.960937-11.359375 0-.34375.378906-.664063.777344-.960938 1.199219-.300781.445312-.542969.929687-.71875 1.4375-.230469.453125-.390625.941406-.480469 1.441406-.089843.53125-.140624 1.0625-.160156 1.601562.027344 2.117188.855469 4.148438 2.320313 5.679688 1.523437 1.476562 3.558593 2.304688 5.679687 2.320312 2.128906.019532 4.175782-.816406 5.683594-2.320312 1.503906-1.503906 2.339844-3.554688 2.316406-5.679688-.015625-.539062-.070312-1.074218-.167968-1.601562zm0 0"/></svg>